<mxfile host="app.diagrams.net" modified="2021-05-07T06:21:47.115Z" agent="5.0 (X11; Linux x86_64) AppleWebKit/537.36 (KHTML, like Gecko) Chrome/88.0.4324.182 Safari/537.36" etag="KcGM4RYKpTbF7zwXmzKz" version="14.4.5" type="github">
  <diagram name="Page-1" id="dd472eb7-4b8b-5cd9-a60b-b15522922e76">
    <mxGraphModel dx="1422" dy="801" grid="1" gridSize="10" guides="1" tooltips="1" connect="1" arrows="1" fold="1" page="1" pageScale="1" pageWidth="1100" pageHeight="850" background="#ffffff" math="0" shadow="0">
      <root>
        <mxCell id="0" />
        <mxCell id="1" parent="0" />
        <mxCell id="64Vx9FYo9tibzsEboU_u-6" value="" style="rounded=0;whiteSpace=wrap;html=1;fillColor=#d5e8d4;strokeColor=#82b366;" vertex="1" parent="1">
          <mxGeometry x="40" y="70" width="1520" height="170" as="geometry" />
        </mxCell>
        <mxCell id="64Vx9FYo9tibzsEboU_u-4" value="驿站" style="ellipse;whiteSpace=wrap;html=1;aspect=fixed;fillColor=#e1d5e7;strokeColor=#9673a6;" vertex="1" parent="1">
          <mxGeometry x="1390" y="110" width="80" height="80" as="geometry" />
        </mxCell>
        <mxCell id="64Vx9FYo9tibzsEboU_u-5" value="服务" style="ellipse;whiteSpace=wrap;html=1;aspect=fixed;fillColor=#e1d5e7;strokeColor=#9673a6;" vertex="1" parent="1">
          <mxGeometry x="1190" y="115" width="80" height="80" as="geometry" />
        </mxCell>
        <mxCell id="64Vx9FYo9tibzsEboU_u-21" value="" style="edgeStyle=orthogonalEdgeStyle;rounded=0;orthogonalLoop=1;jettySize=auto;html=1;" edge="1" parent="1" source="64Vx9FYo9tibzsEboU_u-9" target="64Vx9FYo9tibzsEboU_u-20">
          <mxGeometry relative="1" as="geometry" />
        </mxCell>
        <mxCell id="64Vx9FYo9tibzsEboU_u-9" value="" style="rounded=0;whiteSpace=wrap;html=1;fillColor=#ffe6cc;strokeColor=#d79b00;" vertex="1" parent="1">
          <mxGeometry x="760" y="70" width="140" height="570" as="geometry" />
        </mxCell>
        <mxCell id="64Vx9FYo9tibzsEboU_u-3" value="大学生" style="ellipse;whiteSpace=wrap;html=1;aspect=fixed;fillColor=#e1d5e7;strokeColor=#9673a6;" vertex="1" parent="1">
          <mxGeometry x="790" y="110" width="80" height="80" as="geometry" />
        </mxCell>
        <mxCell id="64Vx9FYo9tibzsEboU_u-13" value="" style="edgeStyle=orthogonalEdgeStyle;rounded=0;orthogonalLoop=1;jettySize=auto;html=1;" edge="1" parent="1" source="64Vx9FYo9tibzsEboU_u-10" target="64Vx9FYo9tibzsEboU_u-12">
          <mxGeometry relative="1" as="geometry" />
        </mxCell>
        <mxCell id="64Vx9FYo9tibzsEboU_u-10" value="普通学生" style="ellipse;whiteSpace=wrap;html=1;aspect=fixed;fillColor=#dae8fc;strokeColor=#6c8ebf;" vertex="1" parent="1">
          <mxGeometry x="770" y="280" width="120" height="120" as="geometry" />
        </mxCell>
        <mxCell id="64Vx9FYo9tibzsEboU_u-15" value="" style="edgeStyle=orthogonalEdgeStyle;rounded=0;orthogonalLoop=1;jettySize=auto;html=1;" edge="1" parent="1" source="64Vx9FYo9tibzsEboU_u-11" target="64Vx9FYo9tibzsEboU_u-14">
          <mxGeometry relative="1" as="geometry" />
        </mxCell>
        <mxCell id="64Vx9FYo9tibzsEboU_u-11" value="代理学生" style="ellipse;whiteSpace=wrap;html=1;aspect=fixed;fillColor=#dae8fc;strokeColor=#6c8ebf;" vertex="1" parent="1">
          <mxGeometry x="765" y="480" width="130" height="130" as="geometry" />
        </mxCell>
        <mxCell id="64Vx9FYo9tibzsEboU_u-12" value="只能单纯的写信&lt;br&gt;&lt;br&gt;&lt;br&gt;审核完成一笔信件才有一笔收入　+5元" style="shape=note;whiteSpace=wrap;html=1;backgroundOutline=1;darkOpacity=0.05;fillColor=#dae8fc;strokeColor=#6c8ebf;" vertex="1" parent="1">
          <mxGeometry x="940" y="232.5" width="160" height="215" as="geometry" />
        </mxCell>
        <mxCell id="64Vx9FYo9tibzsEboU_u-14" value="１．可以作为普通学生　＋５元&lt;br&gt;&lt;br&gt;２．可以作为（学校）的代理，由我们平台进行指定，只要该学校的学生完成一笔信件，该学生自动获取+0.5元" style="shape=note;whiteSpace=wrap;html=1;backgroundOutline=1;darkOpacity=0.05;strokeColor=#6c8ebf;fillColor=#dae8fc;" vertex="1" parent="1">
          <mxGeometry x="940" y="461.25" width="180" height="168.75" as="geometry" />
        </mxCell>
        <mxCell id="64Vx9FYo9tibzsEboU_u-17" value="" style="rounded=0;whiteSpace=wrap;html=1;fillColor=#f5f5f5;strokeColor=#666666;fontColor=#333333;" vertex="1" parent="1">
          <mxGeometry x="80" y="70" width="500" height="550" as="geometry" />
        </mxCell>
        <mxCell id="64Vx9FYo9tibzsEboU_u-2" value="孩子Ａ" style="ellipse;whiteSpace=wrap;html=1;aspect=fixed;fillColor=#e1d5e7;strokeColor=#9673a6;" vertex="1" parent="1">
          <mxGeometry x="360" y="152.5" width="80" height="80" as="geometry" />
        </mxCell>
        <mxCell id="64Vx9FYo9tibzsEboU_u-23" style="edgeStyle=orthogonalEdgeStyle;rounded=0;orthogonalLoop=1;jettySize=auto;html=1;" edge="1" parent="1" source="64Vx9FYo9tibzsEboU_u-1" target="64Vx9FYo9tibzsEboU_u-2">
          <mxGeometry relative="1" as="geometry" />
        </mxCell>
        <mxCell id="64Vx9FYo9tibzsEboU_u-24" style="edgeStyle=orthogonalEdgeStyle;rounded=0;orthogonalLoop=1;jettySize=auto;html=1;" edge="1" parent="1" source="64Vx9FYo9tibzsEboU_u-1" target="64Vx9FYo9tibzsEboU_u-22">
          <mxGeometry relative="1" as="geometry">
            <Array as="points">
              <mxPoint x="150" y="280" />
            </Array>
          </mxGeometry>
        </mxCell>
        <mxCell id="64Vx9FYo9tibzsEboU_u-26" style="edgeStyle=orthogonalEdgeStyle;rounded=0;orthogonalLoop=1;jettySize=auto;html=1;entryX=0;entryY=0.5;entryDx=0;entryDy=0;" edge="1" parent="1" source="64Vx9FYo9tibzsEboU_u-1" target="64Vx9FYo9tibzsEboU_u-25">
          <mxGeometry relative="1" as="geometry">
            <Array as="points">
              <mxPoint x="150" y="110" />
            </Array>
          </mxGeometry>
        </mxCell>
        <mxCell id="64Vx9FYo9tibzsEboU_u-1" value="家长账号" style="ellipse;whiteSpace=wrap;html=1;aspect=fixed;fillColor=#e1d5e7;strokeColor=#9673a6;" vertex="1" parent="1">
          <mxGeometry x="110" y="152.5" width="80" height="80" as="geometry" />
        </mxCell>
        <mxCell id="64Vx9FYo9tibzsEboU_u-18" value="一个家长账号下，可以多个孩子。&lt;br&gt;按照孩子名进行区分。。&lt;br&gt;&lt;br&gt;&lt;br&gt;例如：家长在自己的账户下添加了３个孩子，２个叫孩子Ａ，１个叫孩子Ｂ&lt;br&gt;当在购买服务的时候，选中任何一个孩子Ａ，下单购买服务，最终的服务对象都会归于孩子Ａ的名下，" style="ellipse;shape=cloud;whiteSpace=wrap;html=1;" vertex="1" parent="1">
          <mxGeometry x="130" y="300" width="380" height="330" as="geometry" />
        </mxCell>
        <mxCell id="64Vx9FYo9tibzsEboU_u-20" value="这两种学生共用同一个大学生端，根绝角色的不同，&lt;br&gt;前端界面可以有适当的区别，前期建议不要有太大区别（尽量先功能统一）" style="ellipse;shape=cloud;whiteSpace=wrap;html=1;rounded=0;strokeColor=#d79b00;fillColor=#ffe6cc;" vertex="1" parent="1">
          <mxGeometry x="660" y="690" width="340" height="280" as="geometry" />
        </mxCell>
        <mxCell id="64Vx9FYo9tibzsEboU_u-22" value="孩子B" style="ellipse;whiteSpace=wrap;html=1;aspect=fixed;fillColor=#e1d5e7;strokeColor=#9673a6;" vertex="1" parent="1">
          <mxGeometry x="360" y="240" width="80" height="80" as="geometry" />
        </mxCell>
        <mxCell id="64Vx9FYo9tibzsEboU_u-25" value="孩子Ａ" style="ellipse;whiteSpace=wrap;html=1;aspect=fixed;fillColor=#e1d5e7;strokeColor=#9673a6;" vertex="1" parent="1">
          <mxGeometry x="360" y="70" width="80" height="80" as="geometry" />
        </mxCell>
      </root>
    </mxGraphModel>
  </diagram>
</mxfile>
